# MagicaVoxel @ Ephtracy

# material
mtllib load_D.mtl
usemtl palette

# normals
vn -1 0 0
vn 1 0 0
vn 0 0 1
vn 0 0 -1
vn 0 -1 0
vn 0 1 0

# texcoords
vt 0.958984 0.5
vt 0.978516 0.5

# verts
v -17.5 0 17.5
v -17.5 0 -17.5
v -17.5 1 17.5
v -17.5 1 -17.5
v 17.5 0 17.5
v 17.5 0 -17.5
v 17.5 1 17.5
v 17.5 1 -17.5
v -17.5 0 17.5
v -17.5 1 17.5
v -14.5 0 17.5
v -14.5 1 17.5
v -11.5 0 17.5
v -11.5 1 17.5
v 11.5 0 17.5
v 11.5 1 17.5
v 14.5 0 17.5
v 14.5 1 17.5
v 17.5 0 17.5
v 17.5 1 17.5
v -17.5 0 -17.5
v -17.5 1 -17.5
v -14.5 0 -17.5
v -14.5 1 -17.5
v -11.5 0 -17.5
v -11.5 1 -17.5
v 11.5 0 -17.5
v 11.5 1 -17.5
v 14.5 0 -17.5
v 14.5 1 -17.5
v 17.5 0 -17.5
v 17.5 1 -17.5
v -17.5 0 17.5
v -14.5 0 17.5
v -11.5 0 17.5
v 11.5 0 17.5
v 14.5 0 17.5
v 17.5 0 17.5
v -11.5 0 -4.5
v -10.5 0 -4.5
v -8.5 0 -4.5
v -5.5 0 -4.5
v -3.5 0 -4.5
v -0.5 0 -4.5
v 1.5 0 -4.5
v 3.5 0 -4.5
v 5.5 0 -4.5
v 8.5 0 -4.5
v 10.5 0 -4.5
v 11.5 0 -4.5
v -11.5 0 -12.5
v -10.5 0 -12.5
v -8.5 0 -12.5
v -5.5 0 -12.5
v -3.5 0 -12.5
v -0.5 0 -12.5
v 1.5 0 -12.5
v 3.5 0 -12.5
v 5.5 0 -12.5
v 8.5 0 -12.5
v 10.5 0 -12.5
v 11.5 0 -12.5
v -17.5 0 -17.5
v -14.5 0 -17.5
v -11.5 0 -17.5
v 11.5 0 -17.5
v 14.5 0 -17.5
v 17.5 0 -17.5
v -17.5 1 17.5
v -14.5 1 17.5
v -11.5 1 17.5
v 11.5 1 17.5
v 14.5 1 17.5
v 17.5 1 17.5
v -11.5 1 -4.5
v -10.5 1 -4.5
v -8.5 1 -4.5
v -5.5 1 -4.5
v -3.5 1 -4.5
v -0.5 1 -4.5
v 1.5 1 -4.5
v 3.5 1 -4.5
v 5.5 1 -4.5
v 8.5 1 -4.5
v 10.5 1 -4.5
v 11.5 1 -4.5
v -11.5 1 -12.5
v -10.5 1 -12.5
v -8.5 1 -12.5
v -5.5 1 -12.5
v -3.5 1 -12.5
v -0.5 1 -12.5
v 1.5 1 -12.5
v 3.5 1 -12.5
v 5.5 1 -12.5
v 8.5 1 -12.5
v 10.5 1 -12.5
v 11.5 1 -12.5
v -17.5 1 -17.5
v -14.5 1 -17.5
v -11.5 1 -17.5
v 11.5 1 -17.5
v 14.5 1 -17.5
v 17.5 1 -17.5

# faces
f 3/2/1 2/2/1 1/2/1
f 4/2/1 2/2/1 3/2/1
f 5/2/2 6/2/2 7/2/2
f 7/2/2 6/2/2 8/2/2
f 11/2/3 10/2/3 9/2/3
f 12/2/3 10/2/3 11/2/3
f 13/1/3 12/1/3 11/1/3
f 14/1/3 12/1/3 13/1/3
f 15/2/3 14/2/3 13/2/3
f 16/2/3 14/2/3 15/2/3
f 17/1/3 16/1/3 15/1/3
f 18/1/3 16/1/3 17/1/3
f 19/2/3 18/2/3 17/2/3
f 20/2/3 18/2/3 19/2/3
f 21/2/4 22/2/4 23/2/4
f 23/2/4 22/2/4 24/2/4
f 23/1/4 24/1/4 25/1/4
f 25/1/4 24/1/4 26/1/4
f 25/2/4 26/2/4 27/2/4
f 27/2/4 26/2/4 28/2/4
f 27/1/4 28/1/4 29/1/4
f 29/1/4 28/1/4 30/1/4
f 29/2/4 30/2/4 31/2/4
f 31/2/4 30/2/4 32/2/4
f 39/1/5 35/1/5 34/1/5
f 39/2/5 36/2/5 35/2/5
f 40/2/5 36/2/5 39/2/5
f 41/2/5 36/2/5 40/2/5
f 42/2/5 36/2/5 41/2/5
f 43/2/5 36/2/5 42/2/5
f 44/2/5 36/2/5 43/2/5
f 45/2/5 36/2/5 44/2/5
f 46/2/5 36/2/5 45/2/5
f 47/2/5 36/2/5 46/2/5
f 48/2/5 36/2/5 47/2/5
f 49/2/5 36/2/5 48/2/5
f 50/1/5 37/1/5 36/1/5
f 50/2/5 36/2/5 49/2/5
f 51/1/5 39/1/5 34/1/5
f 51/1/5 40/1/5 39/1/5
f 52/2/5 41/2/5 40/2/5
f 52/1/5 40/1/5 51/1/5
f 53/1/5 42/1/5 41/1/5
f 53/2/5 41/2/5 52/2/5
f 54/2/5 43/2/5 42/2/5
f 54/1/5 42/1/5 53/1/5
f 55/1/5 44/1/5 43/1/5
f 55/2/5 43/2/5 54/2/5
f 56/2/5 45/2/5 44/2/5
f 56/1/5 44/1/5 55/1/5
f 57/1/5 46/1/5 45/1/5
f 57/2/5 45/2/5 56/2/5
f 58/2/5 47/2/5 46/2/5
f 58/1/5 46/1/5 57/1/5
f 59/1/5 48/1/5 47/1/5
f 59/2/5 47/2/5 58/2/5
f 60/2/5 49/2/5 48/2/5
f 60/1/5 48/1/5 59/1/5
f 61/1/5 50/1/5 49/1/5
f 61/2/5 49/2/5 60/2/5
f 62/1/5 37/1/5 50/1/5
f 62/1/5 50/1/5 61/1/5
f 63/2/5 34/2/5 33/2/5
f 64/1/5 51/1/5 34/1/5
f 64/2/5 34/2/5 63/2/5
f 65/2/5 59/2/5 58/2/5
f 65/1/5 51/1/5 64/1/5
f 65/2/5 61/2/5 60/2/5
f 65/2/5 62/2/5 61/2/5
f 65/2/5 58/2/5 57/2/5
f 65/2/5 57/2/5 56/2/5
f 65/2/5 56/2/5 55/2/5
f 65/2/5 55/2/5 54/2/5
f 65/2/5 54/2/5 53/2/5
f 65/2/5 53/2/5 52/2/5
f 65/2/5 52/2/5 51/2/5
f 65/2/5 60/2/5 59/2/5
f 66/1/5 37/1/5 62/1/5
f 66/2/5 62/2/5 65/2/5
f 67/2/5 38/2/5 37/2/5
f 67/1/5 37/1/5 66/1/5
f 68/2/5 38/2/5 67/2/5
f 70/1/6 71/1/6 75/1/6
f 71/2/6 72/2/6 75/2/6
f 75/2/6 72/2/6 76/2/6
f 76/2/6 72/2/6 77/2/6
f 77/2/6 72/2/6 78/2/6
f 78/2/6 72/2/6 79/2/6
f 79/2/6 72/2/6 80/2/6
f 80/2/6 72/2/6 81/2/6
f 81/2/6 72/2/6 82/2/6
f 82/2/6 72/2/6 83/2/6
f 83/2/6 72/2/6 84/2/6
f 84/2/6 72/2/6 85/2/6
f 72/1/6 73/1/6 86/1/6
f 85/2/6 72/2/6 86/2/6
f 70/1/6 75/1/6 87/1/6
f 75/1/6 76/1/6 87/1/6
f 76/2/6 77/2/6 88/2/6
f 87/1/6 76/1/6 88/1/6
f 77/1/6 78/1/6 89/1/6
f 88/2/6 77/2/6 89/2/6
f 78/2/6 79/2/6 90/2/6
f 89/1/6 78/1/6 90/1/6
f 79/1/6 80/1/6 91/1/6
f 90/2/6 79/2/6 91/2/6
f 80/2/6 81/2/6 92/2/6
f 91/1/6 80/1/6 92/1/6
f 81/1/6 82/1/6 93/1/6
f 92/2/6 81/2/6 93/2/6
f 82/2/6 83/2/6 94/2/6
f 93/1/6 82/1/6 94/1/6
f 83/1/6 84/1/6 95/1/6
f 94/2/6 83/2/6 95/2/6
f 84/2/6 85/2/6 96/2/6
f 95/1/6 84/1/6 96/1/6
f 85/1/6 86/1/6 97/1/6
f 96/2/6 85/2/6 97/2/6
f 86/1/6 73/1/6 98/1/6
f 97/1/6 86/1/6 98/1/6
f 69/2/6 70/2/6 99/2/6
f 70/1/6 87/1/6 100/1/6
f 99/2/6 70/2/6 100/2/6
f 94/2/6 95/2/6 101/2/6
f 100/1/6 87/1/6 101/1/6
f 96/2/6 97/2/6 101/2/6
f 97/2/6 98/2/6 101/2/6
f 93/2/6 94/2/6 101/2/6
f 92/2/6 93/2/6 101/2/6
f 91/2/6 92/2/6 101/2/6
f 90/2/6 91/2/6 101/2/6
f 89/2/6 90/2/6 101/2/6
f 88/2/6 89/2/6 101/2/6
f 87/2/6 88/2/6 101/2/6
f 95/2/6 96/2/6 101/2/6
f 98/1/6 73/1/6 102/1/6
f 101/2/6 98/2/6 102/2/6
f 73/2/6 74/2/6 103/2/6
f 102/1/6 73/1/6 103/1/6
f 103/2/6 74/2/6 104/2/6
