# MagicaVoxel @ Ephtracy

# material
mtllib load_A.mtl
usemtl palette

# normals
vn -1 0 0
vn 1 0 0
vn 0 0 1
vn 0 0 -1
vn 0 -1 0
vn 0 1 0

# texcoords
vt 0.958984 0.5
vt 0.978516 0.5

# verts
v -17.5 0 17.5
v -17.5 0 14.5
v -17.5 0 11.5
v -17.5 0 -11.5
v -17.5 0 -14.5
v -17.5 0 -17.5
v -17.5 1 17.5
v -17.5 1 14.5
v -17.5 1 11.5
v -17.5 1 -11.5
v -17.5 1 -14.5
v -17.5 1 -17.5
v 17.5 0 17.5
v 17.5 0 14.5
v 17.5 0 11.5
v 17.5 0 1.5
v 17.5 0 -1.5
v 17.5 0 -11.5
v 17.5 0 -14.5
v 17.5 0 -17.5
v 17.5 1 17.5
v 17.5 1 14.5
v 17.5 1 11.5
v 17.5 1 1.5
v 17.5 1 -1.5
v 17.5 1 -11.5
v 17.5 1 -14.5
v 17.5 1 -17.5
v -17.5 0 17.5
v -17.5 1 17.5
v 17.5 0 17.5
v 17.5 1 17.5
v -17.5 0 -17.5
v -17.5 1 -17.5
v 17.5 0 -17.5
v 17.5 1 -17.5
v -17.5 0 17.5
v 17.5 0 17.5
v -17.5 0 14.5
v 17.5 0 14.5
v -17.5 0 11.5
v 17.5 0 11.5
v -9.5 0 1.5
v 0.5 0 1.5
v 7.5 0 1.5
v 17.5 0 1.5
v -9.5 0 -1.5
v 0.5 0 -1.5
v 7.5 0 -1.5
v 17.5 0 -1.5
v -17.5 0 -11.5
v 17.5 0 -11.5
v -17.5 0 -14.5
v 17.5 0 -14.5
v -17.5 0 -17.5
v 17.5 0 -17.5
v -17.5 1 17.5
v 17.5 1 17.5
v -17.5 1 14.5
v 17.5 1 14.5
v -17.5 1 11.5
v 17.5 1 11.5
v -9.5 1 1.5
v 0.5 1 1.5
v 7.5 1 1.5
v 17.5 1 1.5
v -9.5 1 -1.5
v 0.5 1 -1.5
v 7.5 1 -1.5
v 17.5 1 -1.5
v -17.5 1 -11.5
v 17.5 1 -11.5
v -17.5 1 -14.5
v 17.5 1 -14.5
v -17.5 1 -17.5
v 17.5 1 -17.5

# faces
f 7/2/1 2/2/1 1/2/1
f 8/1/1 3/1/1 2/1/1
f 8/2/1 2/2/1 7/2/1
f 9/2/1 4/2/1 3/2/1
f 9/1/1 3/1/1 8/1/1
f 10/1/1 5/1/1 4/1/1
f 10/2/1 4/2/1 9/2/1
f 11/2/1 6/2/1 5/2/1
f 11/1/1 5/1/1 10/1/1
f 12/2/1 6/2/1 11/2/1
f 13/2/2 14/2/2 21/2/2
f 14/1/2 15/1/2 22/1/2
f 21/2/2 14/2/2 22/2/2
f 15/2/2 16/2/2 23/2/2
f 22/1/2 15/1/2 23/1/2
f 16/1/2 17/1/2 24/1/2
f 23/2/2 16/2/2 24/2/2
f 17/2/2 18/2/2 25/2/2
f 24/1/2 17/1/2 25/1/2
f 18/1/2 19/1/2 26/1/2
f 25/2/2 18/2/2 26/2/2
f 19/2/2 20/2/2 27/2/2
f 26/1/2 19/1/2 27/1/2
f 27/2/2 20/2/2 28/2/2
f 31/2/3 30/2/3 29/2/3
f 32/2/3 30/2/3 31/2/3
f 33/2/4 34/2/4 35/2/4
f 35/2/4 34/2/4 36/2/4
f 39/2/5 38/2/5 37/2/5
f 40/2/5 38/2/5 39/2/5
f 41/1/5 40/1/5 39/1/5
f 42/1/5 40/1/5 41/1/5
f 43/2/5 42/2/5 41/2/5
f 44/2/5 42/2/5 43/2/5
f 45/2/5 42/2/5 44/2/5
f 46/2/5 42/2/5 45/2/5
f 47/2/5 43/2/5 41/2/5
f 47/1/5 44/1/5 43/1/5
f 48/2/5 45/2/5 44/2/5
f 48/1/5 44/1/5 47/1/5
f 49/1/5 46/1/5 45/1/5
f 49/2/5 45/2/5 48/2/5
f 50/1/5 46/1/5 49/1/5
f 51/2/5 48/2/5 47/2/5
f 51/2/5 47/2/5 41/2/5
f 51/2/5 50/2/5 49/2/5
f 51/2/5 49/2/5 48/2/5
f 52/2/5 50/2/5 51/2/5
f 53/1/5 52/1/5 51/1/5
f 54/1/5 52/1/5 53/1/5
f 55/2/5 54/2/5 53/2/5
f 56/2/5 54/2/5 55/2/5
f 57/2/6 58/2/6 59/2/6
f 59/2/6 58/2/6 60/2/6
f 59/1/6 60/1/6 61/1/6
f 61/1/6 60/1/6 62/1/6
f 61/2/6 62/2/6 63/2/6
f 63/2/6 62/2/6 64/2/6
f 64/2/6 62/2/6 65/2/6
f 65/2/6 62/2/6 66/2/6
f 61/2/6 63/2/6 67/2/6
f 63/1/6 64/1/6 67/1/6
f 64/2/6 65/2/6 68/2/6
f 67/1/6 64/1/6 68/1/6
f 65/1/6 66/1/6 69/1/6
f 68/2/6 65/2/6 69/2/6
f 69/1/6 66/1/6 70/1/6
f 67/2/6 68/2/6 71/2/6
f 61/2/6 67/2/6 71/2/6
f 69/2/6 70/2/6 71/2/6
f 68/2/6 69/2/6 71/2/6
f 71/2/6 70/2/6 72/2/6
f 71/1/6 72/1/6 73/1/6
f 73/1/6 72/1/6 74/1/6
f 73/2/6 74/2/6 75/2/6
f 75/2/6 74/2/6 76/2/6
