# MagicaVoxel @ Ephtracy

# material
mtllib load_B.mtl
usemtl palette

# normals
vn -1 0 0
vn 1 0 0
vn 0 0 1
vn 0 0 -1
vn 0 -1 0
vn 0 1 0

# texcoords
vt 0.482422 0.5
vt 0.958984 0.5
vt 0.978516 0.5

# verts
v -17.5 0 17.5
v -17.5 0 -17.5
v -17.5 1 17.5
v -17.5 1 -17.5
v 17.5 0 17.5
v 17.5 0 -17.5
v 17.5 1 17.5
v 17.5 1 -17.5
v -17.5 0 17.5
v -17.5 1 17.5
v -14.5 0 17.5
v -14.5 1 17.5
v -11.5 0 17.5
v -11.5 1 17.5
v -1.5 0 17.5
v -1.5 1 17.5
v 1.5 0 17.5
v 1.5 1 17.5
v 11.5 0 17.5
v 11.5 1 17.5
v 14.5 0 17.5
v 14.5 1 17.5
v 17.5 0 17.5
v 17.5 1 17.5
v -17.5 0 -17.5
v -17.5 1 -17.5
v -14.5 0 -17.5
v -14.5 1 -17.5
v -11.5 0 -17.5
v -11.5 1 -17.5
v -1.5 0 -17.5
v -1.5 1 -17.5
v 1.5 0 -17.5
v 1.5 1 -17.5
v 11.5 0 -17.5
v 11.5 1 -17.5
v 14.5 0 -17.5
v 14.5 1 -17.5
v 17.5 0 -17.5
v 17.5 1 -17.5
v -17.5 0 17.5
v -14.5 0 17.5
v -11.5 0 17.5
v -1.5 0 17.5
v 1.5 0 17.5
v 11.5 0 17.5
v 14.5 0 17.5
v 17.5 0 17.5
v -17.5 0 -17.5
v -14.5 0 -17.5
v -11.5 0 -17.5
v -1.5 0 -17.5
v 1.5 0 -17.5
v 11.5 0 -17.5
v 14.5 0 -17.5
v 17.5 0 -17.5
v -17.5 1 17.5
v -14.5 1 17.5
v -11.5 1 17.5
v -1.5 1 17.5
v 1.5 1 17.5
v 11.5 1 17.5
v 14.5 1 17.5
v 17.5 1 17.5
v -17.5 1 -17.5
v -14.5 1 -17.5
v -11.5 1 -17.5
v -1.5 1 -17.5
v 1.5 1 -17.5
v 11.5 1 -17.5
v 14.5 1 -17.5
v 17.5 1 -17.5

# faces
f 3/3/1 2/3/1 1/3/1
f 4/3/1 2/3/1 3/3/1
f 5/3/2 6/3/2 7/3/2
f 7/3/2 6/3/2 8/3/2
f 11/3/3 10/3/3 9/3/3
f 12/3/3 10/3/3 11/3/3
f 13/2/3 12/2/3 11/2/3
f 14/2/3 12/2/3 13/2/3
f 15/3/3 14/3/3 13/3/3
f 16/3/3 14/3/3 15/3/3
f 17/1/3 16/1/3 15/1/3
f 18/1/3 16/1/3 17/1/3
f 19/3/3 18/3/3 17/3/3
f 20/3/3 18/3/3 19/3/3
f 21/2/3 20/2/3 19/2/3
f 22/2/3 20/2/3 21/2/3
f 23/3/3 22/3/3 21/3/3
f 24/3/3 22/3/3 23/3/3
f 25/3/4 26/3/4 27/3/4
f 27/3/4 26/3/4 28/3/4
f 27/2/4 28/2/4 29/2/4
f 29/2/4 28/2/4 30/2/4
f 29/3/4 30/3/4 31/3/4
f 31/3/4 30/3/4 32/3/4
f 31/1/4 32/1/4 33/1/4
f 33/1/4 32/1/4 34/1/4
f 33/3/4 34/3/4 35/3/4
f 35/3/4 34/3/4 36/3/4
f 35/2/4 36/2/4 37/2/4
f 37/2/4 36/2/4 38/2/4
f 37/3/4 38/3/4 39/3/4
f 39/3/4 38/3/4 40/3/4
f 49/3/5 42/3/5 41/3/5
f 50/2/5 43/2/5 42/2/5
f 50/3/5 42/3/5 49/3/5
f 51/3/5 44/3/5 43/3/5
f 51/2/5 43/2/5 50/2/5
f 52/1/5 45/1/5 44/1/5
f 52/3/5 44/3/5 51/3/5
f 53/3/5 46/3/5 45/3/5
f 53/1/5 45/1/5 52/1/5
f 54/2/5 47/2/5 46/2/5
f 54/3/5 46/3/5 53/3/5
f 55/3/5 48/3/5 47/3/5
f 55/2/5 47/2/5 54/2/5
f 56/3/5 48/3/5 55/3/5
f 57/3/6 58/3/6 65/3/6
f 58/2/6 59/2/6 66/2/6
f 65/3/6 58/3/6 66/3/6
f 59/3/6 60/3/6 67/3/6
f 66/2/6 59/2/6 67/2/6
f 60/1/6 61/1/6 68/1/6
f 67/3/6 60/3/6 68/3/6
f 61/3/6 62/3/6 69/3/6
f 68/1/6 61/1/6 69/1/6
f 62/2/6 63/2/6 70/2/6
f 69/3/6 62/3/6 70/3/6
f 63/3/6 64/3/6 71/3/6
f 70/2/6 63/2/6 71/2/6
f 71/3/6 64/3/6 72/3/6
