# MagicaVoxel @ Ephtracy

# material
mtllib load_E.mtl
usemtl palette

# normals
vn -1 0 0
vn 1 0 0
vn 0 0 1
vn 0 0 -1
vn 0 -1 0
vn 0 1 0

# texcoords
vt 0.482422 0.5
vt 0.916016 0.5
vt 0.958984 0.5
vt 0.978516 0.5

# verts
v -17.5 0 17.5
v -17.5 0 -17.5
v -17.5 1 17.5
v -17.5 1 -17.5
v 17.5 0 17.5
v 17.5 0 14.5
v 17.5 0 11.5
v 17.5 0 1.5
v 17.5 0 -1.5
v 17.5 0 -11.5
v 17.5 0 -14.5
v 17.5 0 -17.5
v 17.5 1 17.5
v 17.5 1 14.5
v 17.5 1 11.5
v 17.5 1 1.5
v 17.5 1 -1.5
v 17.5 1 -11.5
v 17.5 1 -14.5
v 17.5 1 -17.5
v -17.5 0 17.5
v -17.5 1 17.5
v -14.5 0 17.5
v -14.5 1 17.5
v -11.5 0 17.5
v -11.5 1 17.5
v -1.5 0 17.5
v -1.5 1 17.5
v 1.5 0 17.5
v 1.5 1 17.5
v 11.5 0 17.5
v 11.5 1 17.5
v 14.5 0 17.5
v 14.5 1 17.5
v 17.5 0 17.5
v 17.5 1 17.5
v -17.5 0 -17.5
v -17.5 1 -17.5
v 17.5 0 -17.5
v 17.5 1 -17.5
v -17.5 0 17.5
v -14.5 0 17.5
v -11.5 0 17.5
v -1.5 0 17.5
v 1.5 0 17.5
v 11.5 0 17.5
v 14.5 0 17.5
v 17.5 0 17.5
v -14.5 0 16.5
v -11.5 0 16.5
v 14.5 0 14.5
v 17.5 0 14.5
v 11.5 0 11.5
v 17.5 0 11.5
v 1.5 0 1.5
v 17.5 0 1.5
v -12.5 0 0.5
v -11.5 0 0.5
v -12.5 0 -0.5
v -11.5 0 -0.5
v -1.5 0 -1.5
v 17.5 0 -1.5
v -11.5 0 -11.5
v 17.5 0 -11.5
v -14.5 0 -14.5
v 17.5 0 -14.5
v -17.5 0 -17.5
v 17.5 0 -17.5
v -17.5 1 17.5
v -14.5 1 17.5
v -11.5 1 17.5
v -1.5 1 17.5
v 1.5 1 17.5
v 11.5 1 17.5
v 14.5 1 17.5
v 17.5 1 17.5
v -14.5 1 16.5
v -11.5 1 16.5
v 14.5 1 14.5
v 17.5 1 14.5
v 11.5 1 11.5
v 17.5 1 11.5
v 1.5 1 1.5
v 17.5 1 1.5
v -12.5 1 0.5
v -11.5 1 0.5
v -12.5 1 -0.5
v -11.5 1 -0.5
v -1.5 1 -1.5
v 17.5 1 -1.5
v -11.5 1 -11.5
v 17.5 1 -11.5
v -14.5 1 -14.5
v 17.5 1 -14.5
v -17.5 1 -17.5
v 17.5 1 -17.5

# faces
f 3/4/1 2/4/1 1/4/1
f 4/4/1 2/4/1 3/4/1
f 5/4/2 6/4/2 13/4/2
f 6/2/2 7/2/2 14/2/2
f 13/4/2 6/4/2 14/4/2
f 7/4/2 8/4/2 15/4/2
f 14/2/2 7/2/2 15/2/2
f 8/1/2 9/1/2 16/1/2
f 15/4/2 8/4/2 16/4/2
f 9/4/2 10/4/2 17/4/2
f 16/1/2 9/1/2 17/1/2
f 10/3/2 11/3/2 18/3/2
f 17/4/2 10/4/2 18/4/2
f 11/4/2 12/4/2 19/4/2
f 18/3/2 11/3/2 19/3/2
f 19/4/2 12/4/2 20/4/2
f 23/4/3 22/4/3 21/4/3
f 24/4/3 22/4/3 23/4/3
f 25/2/3 24/2/3 23/2/3
f 26/2/3 24/2/3 25/2/3
f 27/4/3 26/4/3 25/4/3
f 28/4/3 26/4/3 27/4/3
f 29/1/3 28/1/3 27/1/3
f 30/1/3 28/1/3 29/1/3
f 31/4/3 30/4/3 29/4/3
f 32/4/3 30/4/3 31/4/3
f 33/2/3 32/2/3 31/2/3
f 34/2/3 32/2/3 33/2/3
f 35/4/3 34/4/3 33/4/3
f 36/4/3 34/4/3 35/4/3
f 37/4/4 38/4/4 39/4/4
f 39/4/4 38/4/4 40/4/4
f 49/4/5 42/4/5 41/4/5
f 49/2/5 43/2/5 42/2/5
f 50/4/5 44/4/5 43/4/5
f 50/2/5 43/2/5 49/2/5
f 51/4/5 48/4/5 47/4/5
f 51/2/5 47/2/5 46/2/5
f 52/4/5 48/4/5 51/4/5
f 53/4/5 46/4/5 45/4/5
f 53/2/5 51/2/5 46/2/5
f 53/2/5 52/2/5 51/2/5
f 54/2/5 52/2/5 53/2/5
f 55/1/5 45/1/5 44/1/5
f 55/4/5 53/4/5 45/4/5
f 55/4/5 54/4/5 53/4/5
f 56/4/5 54/4/5 55/4/5
f 57/3/5 50/3/5 49/3/5
f 58/4/5 44/4/5 50/4/5
f 58/3/5 50/3/5 57/3/5
f 59/3/5 57/3/5 49/3/5
f 59/2/5 58/2/5 57/2/5
f 60/4/5 44/4/5 58/4/5
f 60/2/5 58/2/5 59/2/5
f 61/1/5 55/1/5 44/1/5
f 61/4/5 44/4/5 60/4/5
f 61/1/5 56/1/5 55/1/5
f 62/1/5 56/1/5 61/1/5
f 63/3/5 60/3/5 59/3/5
f 63/4/5 61/4/5 60/4/5
f 63/4/5 62/4/5 61/4/5
f 64/4/5 62/4/5 63/4/5
f 65/3/5 59/3/5 49/3/5
f 65/4/5 49/4/5 41/4/5
f 65/3/5 64/3/5 63/3/5
f 65/3/5 63/3/5 59/3/5
f 66/3/5 64/3/5 65/3/5
f 67/4/5 65/4/5 41/4/5
f 67/4/5 66/4/5 65/4/5
f 68/4/5 66/4/5 67/4/5
f 69/4/6 70/4/6 77/4/6
f 70/2/6 71/2/6 77/2/6
f 71/4/6 72/4/6 78/4/6
f 77/2/6 71/2/6 78/2/6
f 75/4/6 76/4/6 79/4/6
f 74/2/6 75/2/6 79/2/6
f 79/4/6 76/4/6 80/4/6
f 73/4/6 74/4/6 81/4/6
f 74/2/6 79/2/6 81/2/6
f 79/2/6 80/2/6 81/2/6
f 81/2/6 80/2/6 82/2/6
f 72/1/6 73/1/6 83/1/6
f 73/4/6 81/4/6 83/4/6
f 81/4/6 82/4/6 83/4/6
f 83/4/6 82/4/6 84/4/6
f 77/3/6 78/3/6 85/3/6
f 78/4/6 72/4/6 86/4/6
f 85/3/6 78/3/6 86/3/6
f 77/3/6 85/3/6 87/3/6
f 85/2/6 86/2/6 87/2/6
f 86/4/6 72/4/6 88/4/6
f 87/2/6 86/2/6 88/2/6
f 72/1/6 83/1/6 89/1/6
f 88/4/6 72/4/6 89/4/6
f 83/1/6 84/1/6 89/1/6
f 89/1/6 84/1/6 90/1/6
f 87/3/6 88/3/6 91/3/6
f 88/4/6 89/4/6 91/4/6
f 89/4/6 90/4/6 91/4/6
f 91/4/6 90/4/6 92/4/6
f 77/3/6 87/3/6 93/3/6
f 69/4/6 77/4/6 93/4/6
f 91/3/6 92/3/6 93/3/6
f 87/3/6 91/3/6 93/3/6
f 93/3/6 92/3/6 94/3/6
f 69/4/6 93/4/6 95/4/6
f 93/4/6 94/4/6 95/4/6
f 95/4/6 94/4/6 96/4/6
