# MagicaVoxel @ Ephtracy

# material
mtllib load_B.mtl
usemtl palette

# normals
vn -1 0 0
vn 1 0 0
vn 0 0 1
vn 0 0 -1
vn 0 -1 0
vn 0 1 0

# texcoords
vt 0.482422 0.5
vt 0.916016 0.5
vt 0.978516 0.5

# verts
v -15 0 15
v -15 0 12
v -15 0 10
v -15 0 1
v -15 0 -1
v -15 0 -10
v -15 0 -12
v -15 0 -15
v -15 1 15
v -15 1 12
v -15 1 10
v -15 1 1
v -15 1 -1
v -15 1 -10
v -15 1 -12
v -15 1 -15
v 15 0 15
v 15 0 12
v 15 0 10
v 15 0 1
v 15 0 -1
v 15 0 -10
v 15 0 -12
v 15 0 -15
v 15 1 15
v 15 1 12
v 15 1 10
v 15 1 1
v 15 1 -1
v 15 1 -10
v 15 1 -12
v 15 1 -15
v -15 0 15
v -15 1 15
v 15 0 15
v 15 1 15
v -15 0 -15
v -15 1 -15
v 15 0 -15
v 15 1 -15
v -15 0 15
v 15 0 15
v -15 0 12
v 15 0 12
v -15 0 10
v 15 0 10
v -15 0 1
v 15 0 1
v -15 0 -1
v 15 0 -1
v -15 0 -10
v 15 0 -10
v -15 0 -12
v 15 0 -12
v -15 0 -15
v 15 0 -15
v -15 1 15
v 15 1 15
v -15 1 12
v 15 1 12
v -15 1 10
v 15 1 10
v -15 1 1
v 15 1 1
v -15 1 -1
v 15 1 -1
v -15 1 -10
v 15 1 -10
v -15 1 -12
v 15 1 -12
v -15 1 -15
v 15 1 -15

# faces
f 9/3/1 2/3/1 1/3/1
f 10/2/1 3/2/1 2/2/1
f 10/3/1 2/3/1 9/3/1
f 11/3/1 4/3/1 3/3/1
f 11/2/1 3/2/1 10/2/1
f 12/1/1 5/1/1 4/1/1
f 12/3/1 4/3/1 11/3/1
f 13/3/1 6/3/1 5/3/1
f 13/1/1 5/1/1 12/1/1
f 14/2/1 7/2/1 6/2/1
f 14/3/1 6/3/1 13/3/1
f 15/3/1 8/3/1 7/3/1
f 15/2/1 7/2/1 14/2/1
f 16/3/1 8/3/1 15/3/1
f 17/3/2 18/3/2 25/3/2
f 18/2/2 19/2/2 26/2/2
f 25/3/2 18/3/2 26/3/2
f 19/3/2 20/3/2 27/3/2
f 26/2/2 19/2/2 27/2/2
f 20/1/2 21/1/2 28/1/2
f 27/3/2 20/3/2 28/3/2
f 21/3/2 22/3/2 29/3/2
f 28/1/2 21/1/2 29/1/2
f 22/2/2 23/2/2 30/2/2
f 29/3/2 22/3/2 30/3/2
f 23/3/2 24/3/2 31/3/2
f 30/2/2 23/2/2 31/2/2
f 31/3/2 24/3/2 32/3/2
f 35/3/3 34/3/3 33/3/3
f 36/3/3 34/3/3 35/3/3
f 37/3/4 38/3/4 39/3/4
f 39/3/4 38/3/4 40/3/4
f 43/3/5 42/3/5 41/3/5
f 44/3/5 42/3/5 43/3/5
f 45/2/5 44/2/5 43/2/5
f 46/2/5 44/2/5 45/2/5
f 47/3/5 46/3/5 45/3/5
f 48/3/5 46/3/5 47/3/5
f 49/1/5 48/1/5 47/1/5
f 50/1/5 48/1/5 49/1/5
f 51/3/5 50/3/5 49/3/5
f 52/3/5 50/3/5 51/3/5
f 53/2/5 52/2/5 51/2/5
f 54/2/5 52/2/5 53/2/5
f 55/3/5 54/3/5 53/3/5
f 56/3/5 54/3/5 55/3/5
f 57/3/6 58/3/6 59/3/6
f 59/3/6 58/3/6 60/3/6
f 59/2/6 60/2/6 61/2/6
f 61/2/6 60/2/6 62/2/6
f 61/3/6 62/3/6 63/3/6
f 63/3/6 62/3/6 64/3/6
f 63/1/6 64/1/6 65/1/6
f 65/1/6 64/1/6 66/1/6
f 65/3/6 66/3/6 67/3/6
f 67/3/6 66/3/6 68/3/6
f 67/2/6 68/2/6 69/2/6
f 69/2/6 68/2/6 70/2/6
f 69/3/6 70/3/6 71/3/6
f 71/3/6 70/3/6 72/3/6
